<svg width="3582" height="966" viewBox="0 0 3582 966" fill="none" xmlns="http://www.w3.org/2000/svg">
<path fill-rule="evenodd" clip-rule="evenodd" d="M3161.55 16.0252C3154.71 16.0252 3148.36 17.4916 3142.5 19.4456C3154.95 27.7492 3161.79 38.7401 3165.21 51.1936C3165.46 52.9057 3165.95 54.1265 3166.19 55.8348C3166.43 57.3013 3166.68 58.7677 3166.68 60.2342C3167.65 81.7245 3161.06 84.4118 3156.42 97.111C3149.33 113.476 3151.29 131.059 3159.84 145.224C3160.57 146.936 3161.55 148.89 3162.77 150.599C3153.49 88.8074 3205.02 79.5287 3214.55 60.2304C3215.28 43.3813 3201.36 32.1486 3190.37 24.3325C3179.86 17.9829 3170.34 16.0252 3161.55 16.0252ZM3239.21 29.9489C3238.23 35.5653 3238.97 34.0988 3238.72 37.0317C3238.48 38.9857 3238.48 41.4273 3238.24 43.3813C3237.75 45.3353 3237.26 47.2893 3236.53 49.2396C3236.04 51.1974 3235.31 53.1514 3234.57 55.1054C3233.59 57.0594 3232.87 58.7677 3231.89 60.7218C3231.15 61.6969 3230.67 62.6758 3229.93 63.6509L3228.47 65.8506C3227.25 67.5589 3226.02 69.271 3224.8 70.7337C3223.34 72.2002 3222.12 73.9085 3220.41 75.1293V75.375C3218.94 76.5957 3217.48 78.0622 3215.77 79.283C3210.64 83.191 3204.78 86.1239 3199.4 89.7863C3197.69 91.0071 3195.98 91.9822 3194.52 93.4486C3192.81 94.6694 3191.34 95.8902 3189.88 97.3566C3188.17 98.8231 3186.95 100.286 3185.48 101.998C3184.26 103.461 3182.8 105.173 3181.82 106.881C3180.6 108.589 3179.38 110.301 3178.4 112.01C3177.42 113.964 3176.69 115.676 3175.72 117.626C3174.98 119.58 3174.25 121.292 3173.76 123.246C3173.11 125.257 3172.54 127.294 3172.05 129.35C3171.81 130.329 3171.81 131.55 3171.56 132.525C3171.32 133.504 3171.32 134.479 3171.07 135.458C3171.07 137.408 3170.83 139.608 3170.83 141.562C3170.83 143.028 3170.83 144.491 3171.07 145.957C3171.07 147.912 3171.32 149.866 3171.81 152.065C3172.05 154.019 3172.54 155.973 3173.03 157.923C3173.76 159.881 3174.25 161.831 3174.98 163.786C3175.47 165.01 3176.2 166.231 3176.69 167.206L3120.52 145.47C3110.99 142.786 3101.71 140.341 3092.19 138.141L3076.8 134.479C3062.1 131.547 3047.27 129.346 3032.35 127.884C3031.86 127.884 3031.62 127.642 3031.13 127.642C3016.48 126.175 3002.07 125.442 2987.41 125.442C2976.67 125.442 2965.92 125.934 2955.42 126.663C2940.52 127.642 2925.62 129.596 2910.73 132.038C2907.06 132.525 2903.39 133.258 2899.73 133.992C2892.16 135.454 2884.84 137.166 2877.75 138.875L2866.76 141.808C2863.1 143.27 2859.68 144.982 2856.26 146.445L2848.2 150.111C2847.71 150.353 2847.22 150.353 2846.98 150.599C2844.54 151.82 2842.34 152.795 2840.14 154.015C2839.41 154.261 2838.92 154.507 2838.43 154.749C2835.75 155.969 2833.06 157.436 2830.86 158.657C2829.15 159.39 2827.44 160.369 2825.98 161.098C2825.24 161.59 2824.27 162.077 2823.78 162.323C2821.58 163.544 2819.38 164.764 2817.43 165.985C2815.23 167.206 2813.27 168.427 2811.57 169.651C2809.86 170.868 2808.15 171.843 2806.68 173.068C2806.44 173.31 2806.19 173.31 2805.95 173.556C2804.48 174.531 2802.77 175.751 2801.31 176.976L2800.82 177.464L2797.16 180.393C2796.67 180.638 2796.18 181.126 2795.69 181.372C2794.47 182.347 2793.25 183.567 2792.03 184.546C2791.78 185.034 2791.3 185.28 2791.05 185.522C2789.58 186.988 2788.12 188.209 2786.66 189.675C2786.41 189.675 2786.41 189.921 2786.16 190.167C2784.7 191.384 2783.23 192.85 2781.77 194.316C2781.53 194.558 2781.53 194.804 2781.28 194.804C2780 196.049 2778.78 197.353 2777.62 198.712C2777.13 199.2 2776.4 199.687 2775.91 200.175C2774.69 201.641 2773.22 203.108 2771.76 204.574C2771.51 205.062 2771.02 205.304 2770.78 205.795C2768.83 207.749 2767.11 209.703 2765.16 211.653L2764.43 212.386C2760.52 216.54 2756.37 220.69 2751.97 224.356C2747.64 228.22 2743.08 231.809 2738.3 235.101C2733.56 238.422 2728.67 241.518 2723.64 244.38C2718.66 247.116 2713.52 249.564 2708.26 251.712C2703.06 253.918 2697.76 255.873 2692.38 257.571C2682.12 259.77 2671.62 263.92 2662.58 264.653C2660.63 264.653 2658.43 265.145 2656.48 265.387C2654.28 265.874 2652.33 266.362 2650.37 266.853L2644.51 269.049C2642.56 269.782 2640.6 270.757 2638.65 271.732C2636.94 272.957 2634.99 273.932 2633.28 275.157C2631.57 276.377 2629.86 277.84 2628.39 279.307C2626.68 280.527 2624.97 282.239 2623.51 283.702C2622.04 285.414 2620.58 286.877 2619.35 288.589C2618.13 290.543 2616.67 292.251 2615.69 294.205C2614.47 295.914 2613.25 297.872 2612.28 299.822C2611.29 302.021 2610.32 303.975 2609.59 306.171C2608.82 308.275 2608.08 310.392 2607.39 312.521C2606.9 314.475 2606.41 316.429 2606.17 318.383C2606.17 318.629 2605.92 318.874 2605.92 319.116C2605.43 321.316 2605.43 324.245 2605.19 325.711C2604.95 327.42 2604.7 328.886 2604.7 330.595C2604.7 331.574 2604.7 332.794 2604.95 333.769C2605.19 335.482 2605.44 336.944 2605.93 338.411C2606.41 339.877 2606.9 341.34 2607.63 342.806V343.052C2608.37 344.518 2609.34 345.981 2610.32 347.448C2611.3 348.914 2612.28 350.38 2613.49 351.843C2614.72 353.064 2616.18 354.53 2617.65 355.751C2619.11 357.218 2620.58 358.435 2622.29 359.659C2628.15 364.788 2629.62 366.5 2637.19 370.404C2638.41 371.138 2639.63 371.625 2641.09 372.358C2641.34 372.358 2641.58 372.604 2641.83 372.604C2641.83 373.095 2641.83 373.337 2642.07 373.825C2642.32 375.779 2642.8 377.733 2643.29 379.687C2643.76 381.696 2644.41 383.658 2645.24 385.545C2645.98 387.015 2646.47 388.478 2647.2 389.944C2647.44 390.436 2647.69 390.923 2647.93 391.165C2648.91 393.119 2649.89 394.831 2650.86 396.54L2654.53 401.668C2655.75 403.131 2657.21 404.843 2658.68 406.306C2660.14 407.772 2661.61 408.993 2663.32 410.46C2663.32 410.46 2663.56 410.705 2663.81 410.705C2665.27 411.926 2666.74 413.147 2668.2 414.122C2669.91 415.347 2671.62 416.322 2673.58 417.297C2675.29 418.28 2677.24 419.251 2679.2 419.984C2680.66 420.717 2682.37 421.205 2684.08 421.696C2684.32 421.942 2684.57 421.942 2685.05 422.184C2686.04 422.429 2687.25 422.671 2688.23 422.917C2687.5 436.108 2687.25 448.561 2689.21 452.957C2691.4 457.84 2702.15 442.941 2712.9 425.846C2711.43 442.699 2710.46 462.481 2712.9 468.343C2715.58 474.447 2730.24 455.398 2742.94 434.395C2916.1 394.34 3074.12 514.015 3090.73 683.024C3087.55 656.642 3055.07 641.989 3040.17 645.655C3032.84 663.729 3020.38 686.928 3000.36 701.339C3002.11 685.03 3001.28 668.546 2997.92 652.493C2992.54 674.962 2982.04 695.965 2967.63 714.038C2944.43 715.75 2921.23 704.514 2909.02 687.661C2908.04 686.928 2907.8 685.465 2907.06 684.486C2906.33 682.778 2905.6 681.069 2905.11 679.357C2904.4 677.72 2903.9 675.995 2903.64 674.229C2903.4 672.52 2903.4 670.812 2903.4 668.858V665.192C2903.64 663.483 2904.13 661.775 2904.62 660.063C2905.11 658.355 2905.6 656.646 2906.33 654.934C2907.3 653.226 2908.04 651.517 2909.26 649.805C2913.41 638.085 2913.41 628.557 2905.84 622.94C2904.38 621.982 2902.82 621.165 2901.2 620.499C2900.22 620.253 2899 619.766 2898.03 619.52C2897.29 619.278 2896.81 619.032 2896.07 618.787C2894.36 618.299 2892.65 617.812 2890.94 617.566C2889.28 617.085 2887.55 616.839 2885.81 616.837C2884.1 616.591 2882.15 616.345 2880.44 616.345C2879.22 616.345 2878 616.591 2876.77 616.591C2874.82 616.591 2873.12 616.837 2871.41 617.324C2869.69 617.57 2867.99 617.815 2866.27 618.303C2864.57 618.791 2862.85 619.278 2861.15 620.011C2859.44 620.745 2857.97 621.478 2856.26 622.207C2854.8 622.94 2853.33 623.919 2851.62 624.653C2794.72 661.775 2828.66 748.719 2867.5 773.876C2852.84 776.563 2837.94 779.738 2833.79 782.913L2833.3 783.404C2843.81 789.753 2854.8 795.124 2866.27 799.765C2881.91 804.894 2898.51 809.535 2905.84 811.489V811.731C2926.08 815.88 2946.77 817.358 2967.39 816.127C3075.58 808.557 3164.24 726.25 3180.36 617.815C3180.85 620.008 3181.34 621.965 3181.82 624.165C3182.56 628.561 3183.53 633.198 3184.02 637.839V638.085C3184.51 640.281 3184.75 642.481 3185 644.435V645.414C3185.24 647.609 3185.49 649.809 3185.49 651.763C3185.73 654.447 3185.97 657.134 3185.97 659.821V663.729C3185.97 664.95 3186.22 666.413 3186.22 667.637C3186.22 669.104 3185.97 670.566 3185.97 672.033V675.453C3185.97 677.162 3185.73 678.628 3185.73 680.336C3185.73 681.315 3185.73 682.29 3185.49 683.511C3185.49 685.223 3185.24 686.932 3185.24 688.886C3184.99 689.619 3184.99 690.352 3184.99 691.082C3184.75 693.036 3184.51 694.748 3184.26 696.702C3184.26 697.435 3184.26 698.164 3184.02 698.898C3183.77 701.339 3183.29 703.539 3183.04 705.98V706.472C3182.55 708.668 3182.06 711.109 3181.57 713.313V714.042L3180.11 720.637C3180.11 720.879 3179.87 721.371 3179.87 721.612C3179.37 723.812 3178.89 726.008 3178.16 728.208V728.941C3177.42 731.383 3176.69 733.582 3176.2 735.782C3175.96 736.024 3175.96 736.266 3175.96 736.266L3173.76 743.594C3172.78 746.036 3172.05 748.235 3171.07 750.677C3170.09 753.119 3169.36 755.56 3168.39 757.76C3167.41 760.201 3166.43 762.401 3165.45 764.843H3165.21C3164.23 767.039 3163.26 769.484 3162.04 771.684C3161.79 772.413 3161.55 772.9 3161.3 773.388C3161.06 773.634 3161.06 773.879 3160.81 774.121C3144.94 806.115 3121.49 834.204 3092.18 856.186C3090.23 857.407 3088.28 858.869 3086.33 860.336C3085.83 860.827 3085.1 861.069 3084.61 861.557C3082.91 862.777 3081.19 863.998 3079.24 865.223L3079.97 866.686H3080.22L3090.48 865.219H3090.72C3097.07 864.244 3103.42 863.023 3109.77 861.802C3111.48 861.557 3113.44 861.069 3115.14 860.582C3116.37 860.336 3117.34 860.09 3118.56 859.848C3120.27 859.603 3121.98 859.115 3123.69 858.869C3125.16 858.382 3126.62 858.136 3128.09 857.649C3152.51 851.79 3176.2 843.729 3198.92 834.204C3160.08 887.201 3108.06 929.94 3047.25 958.029C3075.33 956.075 3103.42 951.434 3130.53 943.618C3228.96 914.553 3311.75 848.37 3361.33 759.222C3351.26 815.769 3328.83 869.394 3295.63 916.261C3319.3 900.649 3341.17 882.466 3360.84 862.044C3415.55 804.898 3451.45 732.358 3463.66 654.45C3471.99 693.101 3474.38 732.796 3470.74 772.167C3647.08 526.226 3485.4 271.249 3417.74 204.087C3417.5 203.599 3417.26 203.353 3417.26 202.866C3417.01 203.111 3417.01 203.111 3417.01 203.357C3417.01 203.108 3417.01 203.108 3416.77 202.866C3416.77 205.795 3416.52 208.724 3416.28 211.657C3415.55 217.277 3414.82 222.648 3413.84 228.022C3412.62 233.393 3411.15 238.767 3409.69 244.142C3407.95 249.429 3405.99 254.643 3403.83 259.77C3401.58 264.831 3399.14 269.802 3396.5 274.669C3393.81 279.31 3390.88 284.193 3387.7 288.589C3384.56 293.132 3381.22 297.533 3377.69 301.78C3374.03 306.175 3370.12 310.083 3366.21 313.987C3363.91 316.093 3361.55 318.13 3359.13 320.095C3357.18 321.807 3355.47 323.27 3353.51 324.982C3349.12 328.399 3344.72 331.577 3339.84 334.506C3335.2 337.436 3330.31 340.365 3325.43 342.81C3320.3 345.252 3315.17 347.451 3310.04 349.651C3304.91 351.601 3299.54 353.313 3294.17 354.776C3288.76 356.23 3283.3 357.453 3277.8 358.442C3272.18 359.417 3266.57 359.905 3261.19 360.396C3257.28 360.638 3253.38 360.884 3249.47 360.884C3243.85 360.884 3238.24 360.392 3232.86 359.905C3227.25 359.417 3221.63 358.684 3216.25 357.463C3210.64 356.484 3205.26 355.022 3199.89 353.31H3199.65C3205.02 352.822 3210.39 352.334 3215.77 351.359C3221.28 350.397 3226.74 349.173 3232.13 347.693C3237.5 346.241 3242.8 344.53 3248.01 342.564C3253.38 340.61 3258.51 338.169 3263.39 335.723C3268.52 333.286 3273.16 330.598 3278.05 327.665C3282.69 324.491 3287.32 321.316 3291.72 317.899C3296.1 314.498 3300.26 310.827 3304.18 306.908C3308.33 303.242 3311.99 299.092 3315.66 294.939C3319.23 290.661 3322.65 286.262 3325.91 281.748C3326.4 281.019 3326.89 280.044 3327.38 279.31C3329.82 275.402 3332.26 271.494 3334.46 267.586C3337.15 262.744 3339.59 257.771 3341.79 252.687C3344 247.576 3345.95 242.361 3347.65 237.059C3349.36 231.93 3350.58 226.552 3351.8 221.185C3352.78 215.565 3353.76 210.19 3354.24 204.82C3354.74 199.203 3355.22 193.583 3355.22 188.213C3355.22 184.305 3354.98 180.396 3354.73 176.488C3354.25 170.872 3353.52 165.498 3352.78 160.123C3351.82 154.613 3350.6 149.152 3349.12 143.758C3347.41 138.633 3345.7 133.258 3343.75 128.13C3341.79 123.001 3339.35 117.872 3336.9 112.989C3334.22 108.102 3331.53 103.219 3328.6 98.5774C3325.48 94.0008 3322.23 89.5212 3318.83 85.145C3315.16 80.9333 3311.41 76.7816 3307.6 72.6915C3305.54 70.595 3303.42 68.5582 3301.25 66.5838C3290.31 58.0866 3278.98 50.0995 3267.3 42.6481C3265.59 41.673 3264.13 40.9397 3262.41 40.2065C3254.36 35.0777 3246.79 32.3905 3239.21 29.9489Z" fill="url(#paint0_linear_1_28)"/>
<path d="M956.536 279.101C954.383 276.813 952.096 274.526 949.808 272.373C947.521 270.219 945.368 267.797 943.081 265.644C940.793 263.491 938.641 261.069 936.353 258.915C934.066 256.762 931.913 254.34 929.626 252.187C927.338 250.034 925.185 247.611 922.898 245.458C920.611 243.305 918.458 240.883 916.17 238.73C913.883 236.577 911.73 234.154 909.443 232.001C976.183 297.601 1014.42 386.843 1015.87 480.42C1015.87 703.405 789.556 884.807 511.301 884.807C355.489 884.807 216.092 827.883 123.385 738.663L130.113 745.391L136.84 752.12L143.568 758.848L150.296 765.577L157.023 772.305L163.751 779.034L170.479 785.763C263.051 878.751 405.542 938.636 565.122 938.636C843.377 938.636 1069.7 757.233 1069.7 534.921C1069.7 439.914 1028.79 349.886 956.536 279.101Z" fill="black"/>
<path d="M982.235 480.42C982.235 685.103 771.391 851.03 511.301 851.03C251.21 851.03 40.3657 685.103 40.3657 480.42C40.3657 353.519 121.097 241.421 245.155 174.943C369.213 108.465 446.446 40.3714 511.301 40.3714C576.155 40.3714 631.591 95.9494 777.446 174.943C901.504 241.421 982.235 353.519 982.235 480.42Z" fill="#FBF0DF"/>
<path d="M982.236 480.42C982.17 454.126 978.549 427.961 971.471 402.638C934.738 850.761 388.185 872.292 173.304 738.259C269.9 813.139 389.101 852.91 511.301 851.03C770.988 851.03 982.236 684.834 982.236 480.42Z" fill="#F6DECE"/>
<path d="M330.058 150.316C390.203 114.251 470.127 46.5617 548.706 46.4271C536.618 42.5192 524.004 40.4772 511.301 40.3714C478.739 40.3714 444.024 57.1929 400.295 82.4923C385.09 91.374 369.347 101.198 352.663 111.425C321.312 130.803 285.386 152.739 245.021 174.674C116.926 243.978 40.3657 358.229 40.3657 480.42C40.3657 485.803 40.3657 491.186 40.3657 496.434C121.905 208.317 270.047 186.381 330.058 150.316Z" fill="#FFFEFC"/>
<path fill-rule="evenodd" clip-rule="evenodd" d="M472.549 74.418C472.738 106.193 466.067 137.635 452.994 166.596C439.92 195.557 420.751 221.355 396.796 242.229C393.029 245.593 395.989 252.052 400.833 250.168C446.177 232.539 507.399 179.787 481.565 73.3414C480.488 67.2857 472.549 68.9006 472.549 74.418ZM503.093 74.418C519.556 101.284 530.016 131.393 533.756 162.681C537.495 193.969 534.425 225.696 524.756 255.686C523.141 260.396 528.927 264.433 532.156 260.53C561.623 222.85 587.323 148.029 510.359 67.2857C506.457 63.7869 500.402 69.1697 503.093 73.8797V74.418ZM540.23 72.1303C566.012 90.3856 587.58 113.958 603.479 141.258C619.379 168.558 629.24 198.951 632.398 230.386C632.262 231.519 632.567 232.661 633.25 233.575C633.933 234.489 634.941 235.105 636.066 235.295C637.191 235.486 638.345 235.236 639.291 234.597C640.237 233.959 640.9 232.981 641.144 231.867C653.523 184.901 646.526 104.831 544.67 63.2486C539.288 61.0954 535.789 68.3623 540.23 71.592V72.1303ZM291.845 212.085C322.513 202.921 350.908 187.4 375.18 166.533C399.453 145.665 419.059 119.919 432.722 90.9703C435.144 86.1257 442.813 88.0097 441.602 93.3926C418.325 201.05 340.419 223.523 291.98 220.563C286.867 220.697 287.001 213.565 291.845 212.085Z" fill="#CCBEA7"/>
<path d="M511.301 884.807C233.045 884.807 6.72754 703.405 6.72754 480.42C6.72754 345.849 89.8812 220.293 229.143 145.068C269.509 123.537 304.089 101.871 334.902 82.896C351.856 72.3994 367.867 62.5757 383.341 53.4249C430.569 25.434 470.935 6.72857 511.301 6.72857C551.666 6.72857 586.919 22.8771 631.053 48.984C644.508 56.6546 657.963 64.998 672.36 74.1489C705.864 94.8729 743.673 118.288 793.458 145.068C932.72 220.293 1015.87 345.714 1015.87 480.42C1015.87 703.405 789.556 884.807 511.301 884.807ZM511.301 40.3714C478.739 40.3714 444.024 57.1929 400.295 82.4923C385.09 91.374 369.347 101.198 352.663 111.425C321.312 130.803 285.386 152.739 245.021 174.674C116.926 243.978 40.3657 358.229 40.3657 480.42C40.3657 684.834 251.614 851.164 511.301 851.164C770.988 851.164 982.235 684.834 982.235 480.42C982.235 358.229 905.675 243.978 777.446 174.943C726.585 148.029 686.892 122.729 654.734 102.813C640.068 93.7963 626.612 85.4529 614.368 78.0514C573.599 53.8286 543.862 40.3714 511.301 40.3714Z" fill="black"/>
<path d="M606.16 578.657C600.116 603.417 586.357 625.614 566.871 642.04C552.242 656.223 533.304 665.126 513.05 667.34C492.188 665.477 472.585 656.552 457.48 642.04C438.193 625.537 424.627 603.348 418.728 578.657C418.533 577.191 418.675 575.7 419.145 574.298C419.615 572.896 420.399 571.62 421.438 570.568C422.477 569.515 423.743 568.715 425.14 568.228C426.536 567.741 428.025 567.58 429.493 567.757H595.531C596.988 567.602 598.462 567.779 599.841 568.277C601.22 568.774 602.468 569.577 603.491 570.627C604.514 571.676 605.286 572.944 605.749 574.335C606.211 575.726 606.352 577.204 606.16 578.657Z" fill="#B71422"/>
<path d="M457.48 643.117C472.554 657.637 492.086 666.646 512.915 668.685C533.697 666.616 553.177 657.61 568.217 643.117C573.027 638.632 577.523 633.821 581.672 628.718C573.383 619.313 563.258 611.704 551.92 606.358C540.581 601.012 528.269 598.042 515.741 597.632C502.336 597.949 489.208 601.52 477.489 608.037C465.769 614.554 455.809 623.822 448.465 635.043C451.559 637.869 454.25 640.56 457.48 643.117Z" fill="#FF6164"/>
<path d="M459.632 632.486C466.303 623.862 474.842 616.863 484.607 612.015C494.372 607.166 505.109 604.595 516.01 604.495C536.16 605.089 555.359 613.202 569.831 627.237C572.926 623.873 575.886 620.374 578.712 616.875C561.594 600.571 538.972 591.3 515.337 590.903C502.706 591.012 490.256 593.916 478.88 599.407C467.504 604.898 457.485 612.84 449.541 622.662C452.722 626.119 456.091 629.398 459.632 632.486Z" fill="black"/>
<path d="M512.512 675.414C490.09 673.449 468.99 663.965 452.636 648.5C431.808 630.881 417.147 607.072 410.79 580.541C410.334 578.179 410.411 575.745 411.017 573.417C411.622 571.088 412.74 568.925 414.288 567.084C416.132 564.857 418.461 563.081 421.096 561.891C423.731 560.702 426.603 560.131 429.493 560.221H595.531C598.416 560.16 601.279 560.745 603.909 561.932C606.54 563.12 608.872 564.88 610.735 567.084C612.269 568.931 613.367 571.1 613.95 573.429C614.532 575.759 614.583 578.189 614.099 580.541C607.741 607.072 593.081 630.881 572.253 648.5C555.934 663.937 534.886 673.42 512.512 675.414ZM429.493 575.831C427.34 575.831 426.802 576.773 426.667 577.042C432.355 600.05 445.221 620.647 463.4 635.85C476.693 648.948 493.977 657.236 512.512 659.4C530.999 657.261 548.263 649.077 561.624 636.119C579.746 620.891 592.562 600.298 598.222 577.311C597.928 576.881 597.522 576.54 597.047 576.327C596.572 576.113 596.047 576.035 595.531 576.1L429.493 575.831Z" fill="black"/>
<path d="M716.09 587.001C759.563 587.001 794.804 566.275 794.804 540.708C794.804 515.141 759.563 494.415 716.09 494.415C672.618 494.415 637.377 515.141 637.377 540.708C637.377 566.275 672.618 587.001 716.09 587.001Z" fill="#FEBBD0"/>
<path d="M308.799 587.001C352.271 587.001 387.512 566.275 387.512 540.708C387.512 515.141 352.271 494.415 308.799 494.415C265.327 494.415 230.085 515.141 230.085 540.708C230.085 566.275 265.327 587.001 308.799 587.001Z" fill="#FEBBD0"/>
<path fill-rule="evenodd" clip-rule="evenodd" d="M345.801 522.137C360.47 522.164 374.817 517.838 387.027 509.706C399.236 501.575 408.76 490.004 414.392 476.457C420.024 462.911 421.511 447.998 418.666 433.605C415.82 419.213 408.77 405.988 398.407 395.605C388.044 385.222 374.834 378.146 360.449 375.274C346.064 372.402 331.15 373.863 317.595 379.471C304.04 385.079 292.453 394.583 284.301 406.779C276.148 418.976 271.797 433.317 271.797 447.988C271.797 467.631 279.589 486.47 293.464 500.372C307.339 514.274 326.161 522.101 345.801 522.137ZM679.088 522.137C693.774 522.244 708.16 517.986 720.423 509.903C732.686 501.821 742.272 490.278 747.966 476.739C753.66 463.2 755.205 448.274 752.406 433.855C749.606 419.437 742.588 406.174 732.241 395.75C721.894 385.327 708.685 378.211 694.289 375.306C679.893 372.401 664.959 373.838 651.381 379.434C637.802 385.03 626.191 394.533 618.021 406.738C609.85 418.943 605.488 433.3 605.488 447.988C605.452 467.572 613.178 486.371 626.973 500.269C640.768 514.167 659.508 522.03 679.088 522.137Z" fill="black"/>
<path fill-rule="evenodd" clip-rule="evenodd" d="M322.927 452.698C328.441 452.725 333.839 451.114 338.437 448.069C343.035 445.025 346.626 440.683 348.755 435.596C350.884 430.508 351.454 424.903 350.395 419.49C349.336 414.078 346.694 409.102 342.804 405.193C338.914 401.283 333.951 398.617 328.545 397.531C323.138 396.445 317.531 396.989 312.434 399.094C307.337 401.198 302.979 404.768 299.912 409.352C296.846 413.936 295.209 419.327 295.209 424.842C295.209 432.207 298.125 439.272 303.319 444.492C308.513 449.712 315.563 452.663 322.927 452.698ZM656.214 452.698C661.729 452.725 667.127 451.114 671.725 448.069C676.323 445.025 679.913 440.683 682.042 435.596C684.171 430.508 684.742 424.903 683.682 419.49C682.623 414.078 679.981 409.102 676.091 405.193C672.201 401.283 667.239 398.617 661.832 397.531C656.426 396.445 650.819 396.989 645.721 399.094C640.624 401.198 636.266 404.768 633.2 409.352C630.133 413.936 628.496 419.327 628.496 424.842C628.496 432.161 631.375 439.185 636.511 444.398C641.647 449.611 648.628 452.592 655.945 452.698H656.214Z" fill="white"/>
<path d="M2127.94 222.86C2093.1 183.508 2044.94 161.838 1992.33 161.838C1951.01 161.838 1912.35 178.653 1880.54 210.463C1859.32 231.686 1841.81 258.67 1829 289.666C1816.19 258.67 1798.68 231.687 1777.46 210.463C1745.65 178.653 1706.99 161.838 1665.67 161.838C1613.06 161.838 1564.9 183.509 1530.06 222.861C1497.61 259.503 1479 309.55 1479 360.17C1479 420.953 1497.39 480.941 1533.66 538.476C1562.38 584.036 1602.33 628.143 1652.39 669.574C1737.22 739.777 1820.71 777.575 1824.23 779.149C1827.24 780.5 1830.76 780.5 1833.77 779.149C1837.29 777.575 1920.78 739.777 2005.6 669.574C2055.67 628.143 2095.61 584.036 2124.34 538.476C2160.61 480.941 2179 420.953 2179 360.17C2179 309.55 2160.39 259.503 2127.94 222.86Z" fill="#FF6647"/>
<path d="M1699.06 669.574C1649 628.143 1609.05 584.036 1580.33 538.476C1544.06 480.941 1525.67 420.951 1525.67 360.17C1525.67 309.55 1544.28 259.503 1576.72 222.86C1606.04 189.756 1644.78 169.169 1687.65 163.465C1680.43 162.39 1673.09 161.839 1665.67 161.839C1613.06 161.839 1564.9 183.511 1530.06 222.862C1497.61 259.503 1479 309.55 1479 360.17C1479 420.953 1497.39 480.941 1533.66 538.476C1562.38 584.036 1602.33 628.143 1652.39 669.574C1737.22 739.777 1820.71 777.575 1824.23 779.149C1827.24 780.5 1830.76 780.5 1833.77 779.149C1834.71 778.728 1841.41 775.698 1852.33 770.142C1822.51 754.977 1761.15 720.956 1699.06 669.574Z" fill="#E35336"/>
<defs>
<linearGradient id="paint0_linear_1_28" x1="2604.7" y1="16.0252" x2="252824" y2="16.0252" gradientUnits="userSpaceOnUse">
<stop stop-color="#EA2845"/>
<stop offset="1" stop-color="#EA2868"/>
</linearGradient>
</defs>
</svg>
